<svg xmlns="http://www.w3.org/2000/svg" width="400" height="400" viewBox="0 0 600 600" fill="none">
  <path d="M 431.321 49.852 C 442.711 55.968 450.821 65.052 450.821 73.952 C 450.821 78.952 446.421 87.152 441.221 91.752 C 438.821 93.852 436.821 95.852 436.821 96.052 C 436.821 96.352 440.421 96.852 444.821 97.252 C 489.221 100.952 525.921 122.152 532.421 147.752 C 535.593 160.348 522.766 180.104 514.102 185.884 C 561.229 196.966 597.606 218.585 599.521 243.152 C 601.721 270.052 575.621 298.352 538.321 309.552 C 530.021 311.952 527.821 312.252 510.821 312.352 L 492.321 312.452 L 483.821 316.552 C 472.921 321.752 461.421 325.352 450.921 326.852 C 440.221 328.452 418.921 327.552 407.721 325.052 L 399.021 323.152 C 399.021 323.152 389.321 325.052 397.121 313.852 C 402.521 306.252 406.721 302.752 418.921 295.852 C 420.146 295.152 428.479 291.861 427.385 287.742 C 426.329 283.762 415.92 278.984 412.791 276.371 C 406.198 270.867 395.338 272.852 394.321 272.852 C 393.403 272.852 341.508 265.818 318.487 255.993 C 310.993 267.685 277.93 299.703 262.621 303.852 C 256.501 305.511 257.23 296.838 252.557 294.184 C 251.156 293.388 250.628 296.907 250.121 297.852 C 247.321 303.052 240.721 309.952 237.121 311.452 C 235.321 312.252 231.721 312.952 229.121 312.952 C 226.521 313.052 223.021 313.352 221.321 313.752 L 218.421 314.352 C 218.421 314.352 213.015 313.546 208.08 309.792 C 204.918 307.387 195.524 295.54 189.309 295.119 C 187.062 294.967 185.183 295.647 183.784 295.477 C 182.284 295.8 180.059 296.047 176.621 296.352 L 167.421 297.052 C 167.421 297.052 164.621 301.752 155.021 308.652 C 132.621 324.952 116.821 329.252 80.821 329.252 C 63.021 329.252 60.321 329.052 49.421 326.452 C 17.521 318.952 1.921 307.552 0.121 290.452 C -0.579 283.952 1.821 274.352 5.821 267.352 C 11.421 257.552 28.421 241.252 40.321 234.252 C 42.177 233.211 45.12 231.923 47.785 230.9 C 48.974 230.444 56.88 227.733 60.601 226.675 C 63.281 225.913 65.354 225.424 66.855 225.134 C 60.396 219.045 57.388 210.708 58.021 200.352 C 58.621 190.952 60.821 186.652 69.721 177.852 C 77.221 170.452 83.637 167.035 88.527 165.009 C 91.506 163.839 93.982 163.243 96.317 162.906 C 100.918 162.241 99.915 158.258 99.164 155.308 C 97.66 152.891 96.732 149.23 95.921 143.552 C 94.121 131.052 96.821 118.152 103.221 108.052 C 109.421 98.152 125.421 81.252 136.921 72.352 C 150.721 61.552 172.721 52.752 194.321 49.352 C 204.721 47.652 227.176 48.128 231.441 48.415 C 234.773 48.64 239.144 49.091 242.489 49.875 C 242.036 48.796 241.642 47.616 241.321 46.352 C 238.921 36.952 240.821 28.952 247.621 20.052 C 253.221 12.652 271.721 3.052 284.321 0.952 C 291.521 -0.248 321.721 -0.348 332.321 0.852 C 343.721 2.152 352.421 4.752 364.121 10.352 C 376.721 16.352 385.121 22.152 392.821 29.852 C 397.351 34.382 401.274 40.014 402.42 43.228 C 408.856 42.772 423.833 45.831 431.321 49.852 Z" style="paint-order: fill; fill: rgb(0, 102, 70);" stroke="none"><bx:title>Leaves Fill</bx:title></path>
</svg>