<?xml version="1.0" standalone="no"?>
<!DOCTYPE svg PUBLIC "-//W3C//DTD SVG 20010904//EN"
 "http://www.w3.org/TR/2001/REC-SVG-20010904/DTD/svg10.dtd">
<svg version="1.0" xmlns="http://www.w3.org/2000/svg"
 width="600.000000pt" height="575.000000pt" viewBox="0 0 600.000000 575.000000"
 preserveAspectRatio="xMidYMid meet">

<g transform="translate(0.000000,575.000000) scale(0.100000,-0.100000)"
fill="#000000" stroke="none">
<path d="M2845 5739 c-126 -21 -311 -117 -367 -191 -68 -89 -87 -169 -63 -263
16 -63 50 -105 86 -105 25 0 25 0 -16 100 -40 99 -43 137 -14 197 57 117 203
180 469 203 312 28 578 -54 862 -264 119 -88 210 -137 225 -123 14 15 -36 96
-97 157 -77 77 -161 135 -287 195 -117 56 -204 82 -318 95 -106 12 -408 11
-480 -1z"/>
<path d="M4060 5300 c0 -12 1 -12 80 -34 113 -31 247 -133 268 -204 24 -80
-19 -143 -150 -219 -43 -25 -78 -48 -78 -53 0 -12 19 -17 182 -46 257 -44 451
-108 570 -188 74 -50 194 -172 219 -222 46 -96 47 -252 3 -333 -13 -24 -24
-45 -24 -46 0 -11 38 -14 69 -5 101 27 162 182 127 321 -65 256 -432 468 -876
505 -44 4 -80 9 -80 12 0 2 20 22 44 43 52 46 96 128 96 178 0 89 -78 186
-195 241 -99 46 -255 77 -255 50z"/>
<path d="M1945 5255 c-216 -34 -436 -122 -574 -230 -115 -89 -275 -258 -337
-357 -64 -101 -91 -230 -73 -355 15 -105 34 -141 86 -157 l23 -7 -7 123 c-7
145 5 200 69 316 149 272 386 465 693 565 101 33 209 53 355 67 63 6 129 14
145 17 l30 7 -40 12 c-52 16 -266 16 -370 -1z"/>
<path d="M3285 4573 c-8 -79 -22 -111 -66 -147 -74 -63 -159 -72 -264 -29
l-66 27 -50 -18 c-118 -43 -200 -8 -276 116 -38 64 -53 72 -53 30 0 -64 117
-192 193 -213 24 -6 68 -8 107 -4 59 6 74 3 131 -20 73 -31 152 -35 210 -11
96 40 189 151 189 225 0 34 -28 111 -40 111 -4 0 -11 -30 -15 -67z"/>
<path d="M5430 4245 c0 -3 17 -31 38 -62 51 -77 51 -120 -1 -192 l-38 -53 33
7 c83 17 134 72 132 141 -1 50 -20 82 -75 125 -31 24 -89 47 -89 34z"/>
<path d="M3975 4108 c31 -102 102 -168 205 -192 130 -31 227 9 316 128 75 101
51 115 -58 35 -187 -139 -335 -131 -433 24 -21 33 -39 36 -30 5z"/>
<path d="M923 4110 c-69 -16 -149 -66 -224 -140 -89 -88 -111 -131 -117 -225
-11 -180 88 -299 287 -345 61 -14 161 -7 215 15 54 23 68 19 137 -34 152 -115
296 -162 495 -162 171 0 274 33 357 116 44 43 75 100 63 112 -3 3 -34 -6 -68
-21 -247 -110 -330 -131 -473 -121 -120 8 -195 28 -285 77 -104 55 -123 74
-115 115 7 39 4 40 -92 17 -82 -19 -250 -15 -303 8 -49 21 -108 84 -137 146
-23 48 -24 57 -13 102 24 100 131 227 253 300 31 19 57 38 57 42 0 4 -1 8 -2
7 -2 -1 -18 -4 -35 -9z"/>
<path d="M3706 4015 c34 -157 231 -240 332 -139 31 31 42 64 22 64 -6 0 -28
-9 -50 -20 -52 -26 -138 -27 -188 -1 -37 19 -74 55 -106 101 l-17 25 7 -30z"/>
<path d="M4655 3940 c-3 -5 4 -12 17 -14 142 -29 206 -45 343 -81 276 -74 548
-184 682 -276 168 -116 214 -245 145 -409 -62 -146 -162 -242 -347 -331 -163
-78 -233 -94 -415 -94 -132 0 -248 10 -347 31 -41 8 -25 -22 27 -50 28 -15 50
-31 50 -36 0 -13 -78 -40 -175 -60 -149 -32 -280 -43 -421 -36 -134 6 -164 11
-164 27 0 17 141 101 251 151 129 57 209 80 384 109 152 25 187 41 247 109
l45 51 17 -26 c47 -72 197 -74 307 -4 41 26 99 92 99 112 0 4 -24 -10 -52 -31
-63 -47 -105 -62 -170 -62 -57 0 -99 16 -152 59 l-39 31 -49 -46 c-82 -76
-159 -98 -261 -75 -38 9 -56 20 -114 67 -52 42 -41 7 22 -75 36 -46 49 -71 39
-71 -8 0 -58 5 -112 11 -155 17 -252 50 -359 122 -35 23 -63 45 -63 48 0 10
169 119 184 119 7 0 38 -11 67 -24 30 -14 82 -30 116 -36 75 -15 113 -5 181
49 49 39 99 115 83 125 -5 4 -55 -6 -111 -20 -83 -21 -118 -26 -184 -22 -127
7 -210 47 -403 190 -86 63 -54 14 70 -108 l127 -125 -52 -23 c-140 -61 -241
-80 -418 -80 -161 1 -309 23 -405 59 -78 29 -218 100 -273 137 -23 16 -47 28
-53 26 -6 -2 26 -51 71 -108 101 -129 149 -198 185 -270 24 -47 27 -62 23
-120 -3 -36 -16 -111 -28 -167 -31 -135 -29 -137 68 -130 42 3 100 13 127 22
28 8 100 24 160 35 126 23 129 25 180 135 18 39 53 114 78 168 30 63 51 97 62
97 20 0 14 -25 -36 -151 -46 -116 -69 -202 -62 -229 3 -11 8 -20 11 -20 3 0
35 26 71 58 36 33 85 71 108 85 50 32 164 70 194 65 18 -2 9 -10 -40 -38 -122
-69 -164 -104 -218 -180 -78 -112 -108 -135 -184 -148 -35 -6 -101 -14 -147
-18 l-83 -7 -73 -86 c-84 -100 -122 -161 -131 -214 -4 -21 -2 -90 6 -153 l12
-116 -101 -202 c-110 -218 -122 -259 -122 -400 1 -116 17 -278 31 -309 22 -49
108 -95 319 -172 148 -54 232 -100 302 -165 66 -62 56 -63 -110 -9 -355 115
-538 212 -595 317 -35 65 -42 130 -27 269 14 133 15 222 2 235 -5 5 -12 -16
-15 -49 -4 -33 -23 -106 -43 -163 -58 -165 -64 -195 -74 -360 -10 -182 -32
-137 184 -379 80 -90 146 -168 146 -174 0 -16 -60 1 -135 37 -38 19 -128 76
-200 126 -188 133 -246 159 -412 186 l-93 14 -115 -114 c-153 -152 -168 -159
-355 -164 -99 -3 -142 -1 -135 6 6 6 53 29 105 52 108 47 138 72 183 150 17
30 63 97 103 150 39 52 76 111 83 131 19 60 -6 115 -30 68 -4 -8 -18 -36 -30
-64 -32 -71 -133 -170 -185 -184 -68 -18 -244 -41 -316 -41 l-67 0 -7 36 c-4
19 -13 38 -21 41 -8 3 -53 -14 -99 -38 l-85 -43 -44 23 -44 23 -143 -71 c-92
-46 -160 -74 -192 -78 -79 -10 -54 13 100 94 236 123 393 170 636 192 65 6
128 15 140 22 90 46 306 248 344 321 37 72 54 153 54 255 0 130 14 160 106
228 l73 55 26 87 c43 144 55 169 107 230 55 63 75 99 64 110 -7 8 -24 -1 -93
-50 -80 -56 -141 -29 -63 28 38 29 58 60 46 72 -3 3 -34 -6 -68 -21 -74 -30
-137 -45 -194 -46 -38 0 -44 5 -104 73 -34 39 -110 143 -167 231 -120 182
-174 238 -287 300 l-80 44 92 7 c79 7 94 11 104 28 22 42 -11 247 -48 302 -12
17 -14 0 -14 -128 0 -172 5 -167 -114 -117 -112 47 -111 46 -87 108 21 52 27
112 14 125 -4 4 -59 -44 -123 -108 -151 -149 -192 -170 -324 -163 -131 7 -136
12 -81 75 25 28 45 54 45 58 0 3 -28 -10 -63 -29 -159 -88 -291 -87 -414 6
-49 36 -61 32 -43 -14 19 -49 66 -94 123 -119 53 -22 52 -22 214 -3 37 5 93
-2 195 -21 134 -26 148 -27 226 -15 90 13 152 7 152 -15 0 -18 -119 -75 -236
-114 -136 -44 -253 -54 -572 -48 -242 4 -287 8 -355 26 -159 44 -256 104 -289
178 -28 64 -22 159 15 235 50 101 229 281 370 371 42 27 77 51 77 53 0 8 -94
-27 -135 -50 -119 -70 -289 -233 -345 -331 -40 -70 -64 -166 -57 -231 18 -171
174 -285 493 -360 109 -26 136 -28 314 -28 360 0 518 43 742 206 96 69 99 69
198 5 113 -73 165 -133 222 -254 59 -126 113 -205 196 -286 59 -59 60 -59 138
-68 66 -7 82 -13 107 -37 52 -52 58 -166 15 -259 -11 -24 -42 -61 -68 -83 -62
-52 -75 -82 -115 -260 -18 -82 -42 -164 -53 -182 -25 -40 -69 -82 -138 -131
-28 -20 -64 -55 -79 -77 -43 -63 -31 -58 -374 -135 -134 -31 -274 -68 -312
-84 -38 -16 -133 -72 -213 -124 -159 -106 -260 -160 -329 -178 -25 -6 -53 -20
-63 -30 -16 -18 -16 -19 17 -19 51 0 276 28 366 45 43 8 136 34 206 56 108 35
132 40 153 30 40 -18 65 -13 124 25 l55 35 3 -34 c3 -29 8 -36 31 -40 51 -10
281 19 379 48 30 9 57 14 60 11 14 -15 -62 -72 -171 -127 -65 -33 -161 -87
-213 -120 -104 -66 -145 -85 -274 -131 -84 -30 -204 -87 -185 -87 6 -1 100 15
210 34 215 38 453 65 577 65 127 0 225 -19 393 -75 152 -51 158 -53 128 -26
-37 31 -209 118 -300 151 -35 12 -63 25 -63 29 0 3 17 16 38 27 20 12 66 45
102 74 111 89 137 103 184 96 103 -17 256 -81 430 -181 43 -25 156 -77 251
-115 95 -38 208 -85 251 -105 137 -62 159 -34 60 77 -37 40 -100 114 -142 163
-42 50 -127 144 -188 209 l-111 119 66 -6 c36 -3 135 -28 220 -56 278 -89 752
-221 797 -221 l23 0 -19 25 c-27 34 -166 160 -227 205 -70 52 -132 82 -308
149 -183 70 -291 120 -332 154 l-30 25 -3 149 c-5 214 2 240 147 498 92 164
96 193 57 381 l-23 111 73 90 c92 115 109 128 186 142 137 26 242 72 284 124
l26 34 87 -19 c112 -25 325 -34 432 -18 105 15 220 51 329 103 l85 41 185 1
c170 1 192 4 275 28 373 112 634 395 612 664 -23 295 -444 534 -1090 618 -134
17 -243 20 -252 5z m-512 -1017 c20 -14 37 -29 37 -34 0 -12 -32 -27 -109 -54
-37 -12 -80 -34 -95 -49 -16 -14 -32 -23 -36 -21 -14 9 37 174 68 223 l14 22
42 -31 c22 -17 58 -42 79 -56z m-287 61 c-13 -34 -115 -201 -131 -214 -19 -16
-51 -3 -156 65 -95 61 -109 77 -109 125 l0 40 201 0 c182 0 201 -2 195 -16z
m-364 -234 c90 -60 87 -78 -11 -87 -59 -6 -61 -5 -61 18 0 39 12 99 20 99 3 0
27 -14 52 -30z"/>
<path d="M2540 3683 c0 -10 15 -45 34 -78 26 -47 46 -69 97 -102 98 -64 99
-65 87 -110 -15 -59 -73 -156 -123 -208 -107 -110 -338 -165 -505 -120 -66 18
-70 18 -70 5 0 -5 17 -20 38 -33 77 -49 121 -59 280 -67 168 -8 151 -2 274
-93 50 -37 58 -21 58 113 0 130 -2 126 58 114 27 -6 34 -14 57 -74 27 -72 64
-116 89 -107 22 9 52 73 76 161 33 120 22 136 -27 41 -40 -79 -41 -80 -52 -53
-6 16 -31 75 -56 132 -34 79 -45 116 -45 155 0 60 19 103 52 118 35 16 88 63
88 79 0 10 -10 9 -46 -6 -103 -45 -227 -6 -307 95 -44 56 -57 65 -57 38z m130
-692 l-1 -26 -25 29 c-20 23 -23 31 -12 43 10 13 14 13 25 -3 7 -10 13 -29 13
-43z"/>
<path d="M1900 3117 c0 -197 97 -432 243 -593 72 -79 143 -115 231 -117 84 -3
80 14 -19 75 -44 28 -100 66 -125 86 l-44 37 29 6 c17 4 52 7 78 8 26 0 62 7
80 15 36 15 102 84 130 136 22 41 32 33 52 -48 19 -72 13 -99 -35 -176 -44
-68 -48 -94 -17 -101 35 -9 92 20 125 63 37 49 37 126 0 202 -26 54 -133 190
-149 190 -4 0 -36 -30 -71 -66 -72 -76 -120 -101 -207 -110 -79 -9 -113 6
-146 61 -33 57 -97 221 -120 310 -25 95 -35 102 -35 22z"/>
<path d="M3177 2763 c-9 -15 -36 -118 -46 -177 -9 -48 -8 -77 5 -145 21 -111
14 -202 -20 -270 -51 -100 -28 -106 52 -13 62 74 65 94 27 237 -23 88 -24 104
-15 193 5 53 12 113 16 133 5 33 -8 61 -19 42z"/>
<path d="M1625 2444 c-131 -60 -187 -67 -249 -30 -44 26 -46 26 -46 6 0 -11 9
-29 19 -39 88 -88 258 -67 361 45 72 78 55 82 -85 18z"/>
<path d="M3215 1909 c-45 -50 -105 -172 -105 -215 0 -33 26 -64 53 -64 27 0
79 52 103 105 46 97 22 140 -25 46 -33 -63 -46 -78 -56 -61 -11 17 27 109 61
149 l32 36 18 -32 c24 -42 34 -42 34 2 0 39 -28 75 -59 75 -10 0 -35 -18 -56
-41z"/>
<path d="M3038 1764 c-36 -77 -42 -157 -14 -199 26 -39 35 -30 29 33 -3 39 1
82 16 139 24 94 24 93 10 93 -5 0 -24 -30 -41 -66z"/>
<path d="M2369 1580 c-25 -24 -30 -37 -27 -67 4 -45 19 -47 31 -3 4 17 12 28
18 24 13 -8 2 -115 -17 -164 -11 -29 -62 -215 -81 -299 -9 -38 16 -15 38 35
11 23 42 116 70 206 55 177 63 246 34 278 -24 26 -31 25 -66 -10z"/>
<path d="M2784 935 c-19 -47 49 -268 106 -347 36 -51 66 -75 78 -64 2 3 -14
49 -38 101 -23 53 -57 140 -75 193 -42 125 -45 132 -56 132 -5 0 -12 -7 -15
-15z"/>
<path d="M404 402 c-43 -21 -105 -49 -136 -61 -59 -24 -75 -41 -38 -41 33 0
246 48 285 64 19 8 35 20 35 25 0 13 -41 51 -55 51 -6 0 -47 -17 -91 -38z"/>
<path d="M4532 393 c-53 -25 -54 -25 -117 -9 -35 9 -76 16 -90 16 -52 0 -19
-44 60 -79 17 -8 65 -15 107 -17 47 -2 87 -10 101 -18 12 -9 67 -19 127 -25
114 -11 215 -32 275 -56 49 -21 54 -13 13 19 -55 41 -142 76 -239 96 -82 16
-95 22 -133 59 -23 23 -44 41 -46 40 -3 0 -29 -12 -58 -26z"/>
<path d="M3142 159 c-54 -16 -32 -32 68 -52 52 -10 153 -38 225 -62 71 -24
132 -41 134 -39 11 11 -61 69 -124 100 -108 53 -229 74 -303 53z"/>
</g>
</svg>
