<svg xmlns="http://www.w3.org/2000/svg" width="400" height="400" viewBox="0 0 600 600" fill="none">
<path d="M 193.321 265.352 C 195.621 274.252 202.021 290.652 205.321 296.352 C 208.621 301.852 218.421 314.352 218.421 314.352 L 222.821 318.052 C 225.321 320.052 230.921 323.852 235.321 326.652 C 236.456 327.351 244.53 330.695 249.366 324.398 C 249.965 323.231 250.782 321.858 251.821 320.252 C 256.621 312.552 257.221 309.852 255.321 302.652 C 253.666 295.951 244.443 282.484 241.534 278.033 C 240.351 277.978 253.124 265.535 266.607 282.81 C 270.637 287.974 265.684 267.79 272.17 259.709 C 275.085 256.077 282.853 262.875 285.831 273.005 C 296.941 276.62 294.617 267.345 298.945 259.88 C 304.961 249.505 303.115 244.439 313.932 253.093 C 317.184 255.695 324.309 266.598 330.83 269.723 C 334.687 271.57 337.272 310.901 340.171 311.979 C 345.821 314.098 370.409 305.973 380.067 291.438 C 386.819 281.277 397.541 258.62 397.987 265.23 C 398.839 277.866 389.165 305.467 389.165 306.467 C 389.165 306.767 405.237 292.034 417.461 289.506 C 426.197 287.699 435.521 281.052 451.021 282.752 C 456.421 283.352 442.821 292.952 429.921 298.652 C 418.921 303.652 404.821 312.052 404.821 313.752 C 404.821 315.352 399.021 323.152 399.021 323.152 L 396.421 326.552 C 392.221 331.752 381.721 336.352 368.021 338.952 C 360.321 340.352 358.621 341.652 349.421 353.152 L 342.121 362.152 L 344.421 373.252 C 348.321 392.052 347.921 394.952 338.721 411.352 C 324.221 437.152 323.521 439.752 324.021 461.152 L 324.321 476.052 L 327.321 478.552 C 331.421 481.952 342.221 486.952 360.521 493.952 C 378.121 500.652 384.321 503.652 391.321 508.852 C 397.421 513.352 411.321 525.952 414.021 529.352 L 415.921 531.852 L 413.621 531.852 C 409.121 531.852 361.721 518.652 333.921 509.752 C 325.421 506.952 315.521 504.452 311.921 504.152 L 305.321 503.552 L 316.421 515.452 C 322.521 521.952 331.021 531.352 335.221 536.352 C 339.421 541.252 345.721 548.652 349.421 552.652 C 359.321 563.752 357.121 566.552 343.421 560.352 C 339.121 558.352 327.821 553.652 318.321 549.852 C 308.821 546.052 297.521 540.852 293.221 538.352 C 275.821 528.352 260.521 521.952 250.221 520.252 C 245.521 519.552 242.921 520.952 231.821 529.852 C 228.221 532.752 223.621 536.052 221.621 537.252 C 219.521 538.352 217.821 539.652 217.821 539.952 C 217.821 540.352 220.621 541.652 224.121 542.852 C 233.221 546.152 250.421 554.852 254.121 557.952 C 257.121 560.652 256.521 560.452 241.321 555.352 C 224.521 549.752 214.721 547.852 202.021 547.852 C 189.621 547.852 165.821 550.552 144.321 554.352 C 133.321 556.252 123.921 557.852 123.321 557.752 C 121.421 557.752 133.421 552.052 141.821 549.052 C 154.721 544.452 158.821 542.552 169.221 535.952 C 174.421 532.652 184.021 527.252 190.521 523.952 C 201.421 518.452 209.021 512.752 207.621 511.252 C 207.321 510.952 204.621 511.452 201.621 512.352 C 191.821 515.252 168.821 518.152 163.721 517.152 C 161.421 516.752 160.921 516.052 160.621 513.152 L 160.321 509.752 L 154.821 513.252 C 148.921 517.052 146.421 517.552 142.421 515.752 C 140.321 514.752 137.921 515.252 127.121 518.752 C 120.121 520.952 110.821 523.552 106.521 524.352 C 97.521 526.052 75.021 528.852 69.921 528.852 C 66.621 528.852 66.621 528.752 68.221 526.952 C 69.221 525.952 72.021 524.552 74.521 523.952 C 81.421 522.152 91.521 516.752 107.421 506.152 C 115.421 500.952 124.921 495.352 128.721 493.752 C 132.521 492.152 146.521 488.452 159.921 485.352 C 194.221 477.652 193.021 478.152 197.321 471.852 C 198.821 469.652 202.421 466.152 205.221 464.152 C 212.121 459.252 216.521 455.052 219.021 451.052 C 220.121 449.252 222.521 441.052 224.321 432.852 C 228.321 415.052 229.621 412.052 235.821 406.852 C 238.421 404.652 241.521 400.952 242.621 398.552 C 246.921 389.252 246.321 377.852 241.121 372.652 C 238.621 370.252 237.021 369.652 230.421 368.952 C 222.621 368.052 222.521 368.052 216.621 362.152 C 208.321 354.052 202.921 346.152 197.021 333.552 C 191.321 321.452 186.121 315.452 174.821 308.152 C 164.921 301.752 158.221 283.152 169.421 287.852 C 181.321 292.852 180.821 293.352 180.821 276.152 C 180.821 263.352 181.2 263.136 181.519 262.821 C 181.71 262.632 182.589 261.706 183.44 261.088 C 185.413 259.657 187.629 258.476 188.226 258.247 C 188.821 258.019 189.893 257.789 190.332 257.736 C 190.86 257.116 191.82 259.648 193.321 265.352 Z" stroke="none" style="fill: rgb(122, 69, 0);"><bx:title>Trunk Fill</bx:title></path>
</svg>